<svg width="517" height="115" viewBox="0 0 517 115" fill="none" xmlns="http://www.w3.org/2000/svg">
<path d="M14 106L46 57.5M46 57.5L78 9V106L46 57.5Z" stroke="#000000" stroke-width="32" stroke-linejoin="bevel"/>
<path d="M179.76 94L176.4 80.752H156.912L153.744 94H138.768L156.432 27.952H177.36L194.928 94H179.76ZM166.896 41.392H166.32L159.888 68.464H173.424L166.896 41.392ZM201.894 94V27.952H216.774V81.136H238.662V94H201.894ZM246.613 94V27.952H261.493V81.136H283.381V94H246.613ZM314.564 94.768C306.564 94.768 300.836 93.808 297.38 91.888C293.988 89.904 291.844 86.768 290.948 82.48C290.116 78.128 289.7 70.96 289.7 60.976C289.7 50.992 290.116 43.856 290.948 39.568C291.844 35.216 293.988 32.08 297.38 30.16C300.836 28.176 306.564 27.184 314.564 27.184C322.628 27.184 328.356 28.176 331.748 30.16C335.204 32.08 337.348 35.184 338.18 39.472C339.012 43.76 339.427 50.928 339.427 60.976C339.427 71.024 339.012 78.192 338.18 82.48C337.348 86.768 335.204 89.904 331.748 91.888C328.356 93.808 322.628 94.768 314.564 94.768ZM314.564 82.384C318.02 82.384 320.324 82.032 321.476 81.328C322.692 80.624 323.46 78.96 323.78 76.336C324.1 73.712 324.26 68.592 324.26 60.976C324.26 53.36 324.1 48.24 323.78 45.616C323.46 42.992 322.692 41.328 321.476 40.624C320.324 39.92 318.02 39.568 314.564 39.568C311.108 39.568 308.772 39.92 307.556 40.624C306.404 41.328 305.668 42.992 305.348 45.616C305.028 48.24 304.868 53.36 304.868 60.976C304.868 68.592 305.028 73.712 305.348 76.336C305.668 78.96 306.404 80.624 307.556 81.328C308.772 82.032 311.108 82.384 314.564 82.384ZM360.769 94V40.816H345.217V27.952H391.393V40.816H375.745V94H360.769ZM398.673 94V27.952H413.649V94H398.673ZM423.273 94V82.192L449.289 40.336H424.137V27.952H467.145V39.472L440.937 81.616H467.337V94H423.273ZM477.05 94V27.952H516.794V40.336H491.93V54.448H513.242V66.832H491.93V81.616H516.794V94H477.05Z" fill="#000000"/>
</svg>
